<svg id="U7D14p10" class="stroke-svg" viewBox="0 0 1024 1152" xmlns="http://www.w3.org/2000/svg" xmlns:xlink="http://www.w3.org/1999/xlink" version="1.1">
<style type="text/css">path.path-radical{fill:#00f;}path.path-normal{fill:#000;}</style>
<title>純</title>
<rect width="1024" height="1152" fill="#fff" fill-opacity="0"></rect>
<g transform="scale(1,-1) translate(0, -879)" fill="currentColor" stroke="none">
<path d="M634 251L634 1Q634 -38 648 -56Q661 -73 691 -78Q735 -81 805 -80Q866 -80 922 -77Q959 -73 966 -62Q973 -52 953 -37Q942 -26 943 7Q943 38 954 146L941 148Q921 39 903 4Q888 -26 854 -32Q830 -35 796 -35Q759 -35 723 -33Q700 -32 693 -24Q685 -16 685 7L685 251L685 267L685 616L685 653L685 775Q723 779 723 789Q723 800 685 812L631 828L634 776L634 642L634 608L634 268L634 251Z" class="path-normal"></path>
<path d="M835 251L835 191L834 177Q832 163 835 160Q839 155 858 163Q877 171 882 181Q885 187 884 200L884 208L884 519Q914 525 914 533Q914 542 884 550L832 562L835 512L835 267L835 251Z" class="path-normal"></path>
<path d="M518 518L467 531L469 480L469 184L468 172Q467 156 470 153Q476 148 498 156Q513 163 517 173Q520 179 518 191L518 201L518 251L634 251L685 251L835 251C865 251 865 267 835 267L685 267L634 268L518 268L518 487Q548 493 549 501Q549 510 518 518Z" class="path-normal"></path>
<path d="M685 616Q746 626 806 641Q860 653 911 668Q953 650 961 656Q969 661 940 691L908 719Q855 701 800 684Q744 668 685 653L634 642Q572 629 503 618Q437 608 365 599L367 585Q436 588 504 594Q570 600 634 608L685 616Z" class="path-normal"></path>
<path d="M301 315L292 308Q317 258 340 177Q359 110 368 59Q370 40 381 30Q392 21 403 25Q415 30 420 46Q426 64 421 90Q409 137 379 196Q346 259 301 315Z" class="path-radical"></path>
<path d="M163 297L122 306Q111 206 86 100Q60 -11 28 -87L38 -93Q82 -19 114 72Q147 168 161 267Q191 273 192 281Q192 289 163 297Z" class="path-radical"></path>
<path d="M205 387L206 368L206 -54L205 -68Q203 -82 206 -85Q211 -90 230 -82Q247 -74 252 -64Q254 -58 253 -45L253 -37L253 375Q275 381 281 387Q287 392 276 398C265 416 203 407 205 387Z" class="path-radical"></path>
<path d="M342 409L358 369Q364 346 377 336Q388 328 398 333Q408 340 410 356Q411 375 400 399Q386 426 356 460Q324 496 283 531L277 521Q292 500 307 475Q323 448 336 422L342 409Z" class="path-radical"></path>
<path d="M369 688L329 709L160 412L50 405Q72 333 85 327Q97 322 101 369L205 387L276 398L342 409C372 414 366 424 336 422L178 413Q198 440 232 487Q253 516 297 579L354 658Q393 654 397 662Q401 671 369 688Z" class="path-radical"></path>
<path d="M259 795L220 816Q195 766 170 717Q143 665 127 633Q107 643 87 650Q65 657 44 661L41 649Q80 630 118 602Q156 574 169 555Q183 536 197 531Q209 527 216 536Q223 545 219 560Q215 577 198 592Q187 601 171 611Q162 616 142 627L245 765Q280 760 285 768Q291 777 259 795Z" class="path-radical"></path>
</g>
<text x="512" y="1108" text-anchor="middle" fill="#aaa" font-family="Segoe UI" font-size="88px" pointer-events="none">&#169;2020.(e-hanja)</text>
</svg>