<svg id="U7D14p5" class="stroke-svg" viewBox="0 0 1024 1152" xmlns="http://www.w3.org/2000/svg" xmlns:xlink="http://www.w3.org/1999/xlink" version="1.1">
<style type="text/css">path.path-radical{fill:#00f;}path.path-normal{fill:#000;}</style>
<title>純</title>
<rect width="1024" height="1152" fill="#fff" fill-opacity="0"></rect>
<g transform="scale(1,-1) translate(0, -879)" fill="currentColor" stroke="none">
<path d="M259 795L220 816Q195 766 170 717Q143 665 127 633Q107 643 87 650Q65 657 44 661L41 649Q80 630 118 602Q156 574 169 555Q183 536 197 531Q209 527 216 536Q223 545 219 560Q215 577 198 592Q187 601 171 611Q162 616 142 627L245 765Q280 760 285 768Q291 777 259 795Z" class="path-radical"></path>
<path d="M369 688L329 709L160 412L50 405Q72 333 85 327Q97 322 101 369L205 387L276 398L342 409C372 414 366 424 336 422L178 413Q198 440 232 487Q253 516 297 579L354 658Q393 654 397 662Q401 671 369 688Z" class="path-radical"></path>
<path d="M342 409L358 369Q364 346 377 336Q388 328 398 333Q408 340 410 356Q411 375 400 399Q386 426 356 460Q324 496 283 531L277 521Q292 500 307 475Q323 448 336 422L342 409Z" class="path-radical"></path>
<path d="M205 387L206 368L206 -54L205 -68Q203 -82 206 -85Q211 -90 230 -82Q247 -74 252 -64Q254 -58 253 -45L253 -37L253 375Q275 381 281 387Q287 392 276 398C265 416 203 407 205 387Z" class="path-radical"></path>
<path d="M163 297L122 306Q111 206 86 100Q60 -11 28 -87L38 -93Q82 -19 114 72Q147 168 161 267Q191 273 192 281Q192 289 163 297Z" class="path-radical"></path>
</g>
<text x="512" y="1108" text-anchor="middle" fill="#aaa" font-family="Segoe UI" font-size="88px" pointer-events="none">&#169;2020.(e-hanja)</text>
</svg>